<?xml version="1.0" standalone="no"?><!DOCTYPE svg PUBLIC "-//W3C//DTD SVG 1.1//EN" "http://www.w3.org/Graphics/SVG/1.1/DTD/svg11.dtd"><svg xmlns:xlink="http://www.w3.org/1999/xlink" version="1.1" style="font-family:'lucida grande', 'lucida sans unicode', arial, helvetica, sans-serif;font-size:12px;" xmlns="http://www.w3.org/2000/svg" width="600" height="400"><desc>Created with Highcharts 4.1.4</desc><defs><clipPath id="highcharts-7"><rect x="0" y="0" width="512" height="280"></rect></clipPath></defs><rect x="0" y="0" width="600" height="400" strokeWidth="0" fill="#FFFFFF" class=" highcharts-background"></rect><g class="highcharts-grid" ></g><g class="highcharts-grid" ><path fill="none" d="M 78 326.5 L 590 326.5" stroke="#D8D8D8" stroke-width="1"  opacity="1"></path><path fill="none" d="M 78 256.5 L 590 256.5" stroke="#D8D8D8" stroke-width="1"  opacity="1"></path><path fill="none" d="M 78 186.5 L 590 186.5" stroke="#D8D8D8" stroke-width="1"  opacity="1"></path><path fill="none" d="M 78 116.5 L 590 116.5" stroke="#D8D8D8" stroke-width="1"  opacity="1"></path><path fill="none" d="M 78 45.5 L 590 45.5" stroke="#D8D8D8" stroke-width="1"  opacity="1"></path></g><g class="highcharts-axis" ><path fill="none" d="M 333.5 326 L 333.5 336" stroke="#C0D0E0" stroke-width="1" opacity="1"></path><path fill="none" d="M 590.5 326 L 590.5 336" stroke="#C0D0E0" stroke-width="1" opacity="1"></path><path fill="none" d="M 77.5 326 L 77.5 336" stroke="#C0D0E0" stroke-width="1" opacity="1"></path><path fill="none" d="M 78 326.5 L 590 326.5" stroke="#C0D0E0" stroke-width="1"  visibility="visible"></path></g><g class="highcharts-axis" ><text x="25.171875"  text-anchor="middle" transform="translate(0,0) rotate(270 25.171875 186)" class=" highcharts-yaxis-title" style="color:#707070;fill:#707070;" visibility="visible" y="186"><tspan>Throughput (ops/sec)</tspan></text></g><g class="highcharts-series-group" ><g class="highcharts-series" visibility="visible"  transform="translate(78,46) scale(1 1)" clip-path="url(#highcharts-7)"><rect x="58.5" y="32.5" width="62" height="248" stroke="#FFFFFF" stroke-width="1" fill="#7cb5ec" rx="0" ry="0"></rect><rect x="314.5" y="123.5" width="62" height="157" stroke="#FFFFFF" stroke-width="1" fill="#7cb5ec" rx="0" ry="0"></rect></g><g class="highcharts-markers" visibility="visible"  transform="translate(78,46) scale(1 1)" clip-path="none"></g><g class="highcharts-series" visibility="visible"  transform="translate(78,46) scale(1 1)" clip-path="url(#highcharts-7)"></g><g class="highcharts-markers" visibility="visible"  transform="translate(78,46) scale(1 1)" clip-path="none"></g></g><text x="300" text-anchor="middle" class="highcharts-title"  style="color:#333333;font-size:18px;fill:#333333;width:536px;" y="24"><tspan>Read throughput</tspan></text><g class="highcharts-data-labels" visibility="visible"  transform="translate(78,46) scale(1 1)" opacity="1"><g  style="" transform="translate(60,10)"><text x="5"  style="font-size: 11px; font-weight: bold; color: rgb(0, 0, 0); fill: rgb(0, 0, 0); text-shadow: rgb(255, 255, 255) 0px 0px 6px, rgb(255, 255, 255) 0px 0px 3px;" transform="translate(0,16)"><tspan>1 767.86</tspan></text></g><g  style="" transform="translate(316,101)"><text x="5"  style="font-size: 11px; font-weight: bold; color: rgb(0, 0, 0); fill: rgb(0, 0, 0); text-shadow: rgb(255, 255, 255) 0px 0px 6px, rgb(255, 255, 255) 0px 0px 3px;" transform="translate(0,16)"><tspan>1 122.45</tspan></text></g></g><g class="highcharts-data-labels" visibility="visible"  transform="translate(78,46) scale(1 1)" opacity="1"><g  style="" transform="translate(0,-999)"><text x="5"  style="font-size: 11px; font-weight: bold; color: rgb(0, 0, 0); fill: rgb(0, 0, 0); text-shadow: rgb(255, 255, 255) 0px 0px 6px, rgb(255, 255, 255) 0px 0px 3px;" transform="translate(0,16)"><tspan>0</tspan></text></g><g  style="" transform="translate(0,-999)"><text x="5"  style="font-size: 11px; font-weight: bold; color: rgb(0, 0, 0); fill: rgb(0, 0, 0); text-shadow: rgb(255, 255, 255) 0px 0px 6px, rgb(255, 255, 255) 0px 0px 3px;" transform="translate(0,16)"><tspan>0</tspan></text></g></g><g class="highcharts-axis-labels highcharts-xaxis-labels" ><text x="206" style="color:#606060;cursor:default;font-size:11px;fill:#606060;width:280px;text-overflow:clip;" text-anchor="middle" transform="translate(0,0)" y="345" opacity="1"><tspan>low-level API</tspan></text><text x="462" style="color:#606060;cursor:default;font-size:11px;fill:#606060;width:280px;text-overflow:clip;" text-anchor="middle" transform="translate(0,0)" y="345" opacity="1">Kundera</text></g><g class="highcharts-axis-labels highcharts-yaxis-labels" ><text x="63" style="color:#606060;cursor:default;font-size:11px;fill:#606060;width:188px;text-overflow:clip;" text-anchor="end" transform="translate(0,0)" y="331" opacity="1">0</text><text x="63" style="color:#606060;cursor:default;font-size:11px;fill:#606060;width:188px;text-overflow:clip;" text-anchor="end" transform="translate(0,0)" y="261" opacity="1">500</text><text x="63" style="color:#606060;cursor:default;font-size:11px;fill:#606060;width:188px;text-overflow:clip;" text-anchor="end" transform="translate(0,0)" y="191" opacity="1">1000</text><text x="63" style="color:#606060;cursor:default;font-size:11px;fill:#606060;width:188px;text-overflow:clip;" text-anchor="end" transform="translate(0,0)" y="120" opacity="1">1500</text><text x="63" style="color:#606060;cursor:default;font-size:11px;fill:#606060;width:188px;text-overflow:clip;" text-anchor="end" transform="translate(0,0)" y="51" opacity="1">2000</text></g><g class="highcharts-tooltip"  style="cursor:default;padding:0;white-space:nowrap;" transform="translate(0,-9999)"><path fill="none" d="M 3 0 L 13 0 C 16 0 16 0 16 3 L 16 13 C 16 16 16 16 13 16 L 3 16 C 0 16 0 16 0 13 L 0 3 C 0 0 0 0 3 0"  stroke="black" stroke-opacity="0.049999999999999996" stroke-width="5" transform="translate(1, 1)"></path><path fill="none" d="M 3 0 L 13 0 C 16 0 16 0 16 3 L 16 13 C 16 16 16 16 13 16 L 3 16 C 0 16 0 16 0 13 L 0 3 C 0 0 0 0 3 0"  stroke="black" stroke-opacity="0.09999999999999999" stroke-width="3" transform="translate(1, 1)"></path><path fill="none" d="M 3 0 L 13 0 C 16 0 16 0 16 3 L 16 13 C 16 16 16 16 13 16 L 3 16 C 0 16 0 16 0 13 L 0 3 C 0 0 0 0 3 0"  stroke="black" stroke-opacity="0.15" stroke-width="1" transform="translate(1, 1)"></path><path fill="rgb(249, 249, 249)" fill-opacity=" .85" d="M 3 0 L 13 0 C 16 0 16 0 16 3 L 16 13 C 16 16 16 16 13 16 L 3 16 C 0 16 0 16 0 13 L 0 3 C 0 0 0 0 3 0"></path><text x="8"  style="font-size:12px;color:#333333;fill:#333333;" transform="translate(0,20)"></text></g></svg>
